<svg width="665" height="115" viewBox="0 0 665 115" fill="none" xmlns="http://www.w3.org/2000/svg">
<path d="M53.416 114.992C17.726 114.992 0.96 95.404 0.96 68.18V2.27799H30.01V67.184C30.01 80.298 37.812 89.76 53.416 89.76C68.688 89.76 76.656 80.298 76.656 67.184V2.27799H105.54V68.014C105.54 95.57 88.774 114.992 53.416 114.992ZM223.4 113H195.844L149.032 48.924V113H120.48V2.27799H149.862L194.682 63.2V2.27799H223.4V113ZM311.419 113H238.379V2.27799H266.931V88.1H311.419V113ZM375.807 114.992C341.943 114.992 316.545 91.42 316.545 57.722C316.545 24.024 341.943 0.451995 375.807 0.451995C409.671 0.451995 434.903 24.024 434.903 57.722C434.903 91.42 409.671 114.992 375.807 114.992ZM375.807 89.76C394.067 89.76 405.853 75.65 405.853 57.722C405.853 39.628 394.067 25.684 375.807 25.684C357.381 25.684 345.595 39.628 345.595 57.722C345.595 75.65 357.381 89.76 375.807 89.76ZM505.225 114.992C471.195 114.992 445.299 91.752 445.299 57.722C445.299 23.526 471.195 0.451995 505.225 0.451995C531.951 0.451995 546.227 15.558 553.531 30.166L528.963 41.786C525.311 32.988 515.849 25.684 505.225 25.684C487.131 25.684 474.349 39.628 474.349 57.722C474.349 75.816 487.131 89.76 505.225 89.76C515.849 89.76 525.311 82.456 528.963 73.658L553.531 85.278C546.393 99.554 531.951 114.992 505.225 114.992ZM664.317 113H629.291L600.241 71.334L592.771 80.63V113H564.219V2.27799H592.771V47.762L626.801 2.27799H661.993L618.999 54.07L664.317 113Z" fill="black"/>
</svg>
