<svg xmlns="http://www.w3.org/2000/svg" viewBox="0 0 160 180"><path d="M35 55 18 25l38 15M125 55l17-30-38 15" fill="#FFC400" stroke="#111" stroke-width="5" stroke-linejoin="round"/><path d="M30 70c0-31 22-52 50-52s50 21 50 52v60c0 22-18 40-40 40H70c-22 0-40-18-40-40Z" fill="#fff" stroke="#111" stroke-width="5"/><circle cx="58" cy="76" r="22" fill="#fff" stroke="#111" stroke-width="4"/><circle cx="102" cy="76" r="22" fill="#fff" stroke="#111" stroke-width="4"/><circle cx="58" cy="76" r="8" fill="#111"/><circle cx="102" cy="76" r="8" fill="#111"/><path d="m80 88-10 9h20Z" fill="#FFC400" stroke="#111" stroke-width="3"/><path d="M43 116c8 8 16 12 25 13M117 116c-8 8-16 12-25 13" fill="none" stroke="#111" stroke-width="4" stroke-linecap="round"/><path d="M39 104c-15 8-18 25-10 39M121 104c15 8 18 25 10 39" fill="#FFC400" stroke="#111" stroke-width="5"/><path d="M57 169v8M103 169v8" stroke="#111" stroke-width="5" stroke-linecap="round"/></svg>
